# xmcd CD database file
#
# Track frame offsets:
#	150
#	20579
#	43010
#	63897
#	83384
#	102935
#	123790
#	140927
#	163598
#	180209
#
# Disc length: 2695 seconds
#
# Revision: 0
# Processed by: cddbd v1.5.1PL0 Copyright (c) Steve Scherf et al.
# Submitted via: CDex 1.51
#
DISCID=760a850a
DTITLE=Wilfrido Vargas - Usted Se Queda Aquí
DYEAR=1900
DGENRE=Merengue
TTITLE0=Por la plata baila el mono
TTITLE1=Usted se queda aquí
TTITLE2=Me duele el corazón
TTITLE3=Suéltame
TTITLE4=El barrigón playero
TTITLE5=La reina que no era mía
TTITLE6=Atrevida
TTITLE7=Leona
TTITLE8=Dígame doctor
TTITLE9=Por que te quiero
EXTD=
EXTT0=
EXTT1=
EXTT2=
EXTT3=
EXTT4=
EXTT5=
EXTT6=
EXTT7=
EXTT8=
EXTT9=
PLAYORDER=
